<?xml version="1.0" encoding="UTF-8" standalone="no"?>
<svg
   xmlns:dc="http://purl.org/dc/elements/1.1/"
   xmlns:cc="http://creativecommons.org/ns#"
   xmlns:rdf="http://www.w3.org/1999/02/22-rdf-syntax-ns#"
   xmlns:svg="http://www.w3.org/2000/svg"
   xmlns="http://www.w3.org/2000/svg"
   xmlns:sodipodi="http://sodipodi.sourceforge.net/DTD/sodipodi-0.dtd"
   xmlns:inkscape="http://www.inkscape.org/namespaces/inkscape"
   viewBox="0 0 512 512"
   version="1.1"
   id="svg4"
   sodipodi:docname="cog.svg"
   inkscape:version="1.0.1 (3bc2e813f5, 2020-09-07)">
  <metadata
     id="metadata10">
    <rdf:RDF>
      <cc:Work
         rdf:about="">
        <dc:format>image/svg+xml</dc:format>
        <dc:type
           rdf:resource="http://purl.org/dc/dcmitype/StillImage" />
      </cc:Work>
    </rdf:RDF>
  </metadata>
  <defs
     id="defs8" />
  <sodipodi:namedview
     pagecolor="#ffffff"
     bordercolor="#666666"
     borderopacity="1"
     objecttolerance="10"
     gridtolerance="10"
     guidetolerance="10"
     inkscape:pageopacity="0"
     inkscape:pageshadow="2"
     inkscape:window-width="1920"
     inkscape:window-height="1019"
     id="namedview6"
     showgrid="false"
     inkscape:zoom="1.9749271"
     inkscape:cx="339.23647"
     inkscape:cy="309.28256"
     inkscape:window-x="1280"
     inkscape:window-y="0"
     inkscape:window-maximized="1"
     inkscape:current-layer="svg4" />
  <!-- Font Awesome Free 5.15.1 by @fontawesome - https://fontawesome.com License - https://fontawesome.com/license/free (Icons: CC BY 4.0, Fonts: SIL OFL 1.1, Code: MIT License) -->
  <path
     d="M487.4 315.7l-42.6-24.6c4.3-23.2 4.3-47 0-70.2l42.6-24.6c4.9-2.8 7.1-8.6 5.5-14-11.1-35.6-30-67.8-54.7-94.6-3.8-4.1-10-5.1-14.8-2.3L380.8 110c-17.9-15.4-38.5-27.3-60.8-35.1V25.8c0-5.6-3.9-10.5-9.4-11.7-36.7-8.2-74.3-7.8-109.2 0-5.5 1.2-9.4 6.1-9.4 11.7V75c-22.2 7.9-42.8 19.8-60.8 35.1L88.7 85.5c-4.9-2.8-11-1.9-14.8 2.3-24.7 26.7-43.6 58.9-54.7 94.6-1.7 5.4.6 11.2 5.5 14L67.3 221c-4.3 23.2-4.3 47 0 70.2l-42.6 24.6c-4.9 2.8-7.1 8.6-5.5 14 11.1 35.6 30 67.8 54.7 94.6 3.8 4.1 10 5.1 14.8 2.3l42.6-24.6c17.9 15.4 38.5 27.3 60.8 35.1v49.2c0 5.6 3.9 10.5 9.4 11.7 36.7 8.2 74.3 7.8 109.2 0 5.5-1.2 9.4-6.1 9.4-11.7v-49.2c22.2-7.9 42.8-19.8 60.8-35.1l42.6 24.6c4.9 2.8 11 1.9 14.8-2.3 24.7-26.7 43.6-58.9 54.7-94.6 1.5-5.5-.7-11.3-5.6-14.1zM256 336c-44.1 0-80-35.9-80-80s35.9-80 80-80 80 35.9 80 80-35.9 80-80 80z"
     id="path2" />
  <path
     style="fill:#ffffff;stroke:#000000;stroke-width:0.717212"
     d="m 251.49371,7.9286713 c -17.23893,0.1093544 -34.74521,1.2963541 -51.32913,6.2489267 -4.90183,1.568618 -8.70403,6.20658 -8.05846,11.526216 -0.57236,16.28912 -0.53083,32.594634 -0.8292,48.890592 -20.97191,7.477289 -40.27365,18.980332 -57.79594,32.619364 -1.60231,1.41678 -3.40683,2.269 -5.11056,0.40587 C 114.1487,99.927491 100.66322,90.782577 85.979021,84.000002 81.050023,82.445169 75.502453,84.349823 72.55292,88.615757 48.361652,114.83982 29.965463,146.50195 19.236364,180.52867 c -2.063788,5.92384 -0.560943,13.51863 5.553846,16.36783 13.552802,8.43375 27.671995,16.00295 41.22937,24.34686 -1.146228,11.97775 -2.479181,23.98495 -2.201653,36.06013 -0.30765,11.38787 0.883157,22.70586 2.489765,33.95805 -14.749173,8.80127 -30.258148,16.436 -44.462937,26.0951 -6.151201,5.60895 -2.57663,14.61553 -0.351492,21.20149 11.577733,32.17339 29.381379,62.38041 53.075968,87.1132 4.331581,3.96699 11.060386,4.0407 15.671306,0.51239 13.916213,-7.07562 26.880853,-16.00426 40.990233,-22.64806 3.14144,1.01356 5.55726,4.34915 8.52254,6.02167 15.76169,11.92583 33.25254,21.5282 51.87327,28.18253 0.34932,17.37878 -0.71998,34.84124 0.64195,52.17203 1.55724,7.87818 10.50912,9.358 17.11934,10.41541 14.1821,2.81685 28.58462,4.2844 43.05129,3.7756 20.3928,0.0398 41.22113,-0.31481 60.83357,-6.47773 5.6253,-2.03126 7.90809,-8.30953 7.40889,-13.87915 0.45769,-15.43276 0.49429,-30.87541 0.75754,-46.31245 21.48165,-8.27341 41.87965,-19.71833 59.51049,-34.57623 15.27767,8.58108 30.14302,17.98836 45.88812,25.68951 8.02833,2.26313 13.56748,-5.86471 18.26992,-10.93706 21.58065,-25.72962 38.5993,-55.61515 48.40839,-87.79161 2.11202,-6.30711 -2.13469,-12.98638 -7.93588,-15.50087 -12.91614,-8.34537 -26.74725,-15.37167 -39.61656,-23.66836 0.79395,-9.20342 2.48913,-18.42166 2.16555,-27.73832 0.2748,-13.64407 -10e-4,-27.32898 -2.23968,-40.81133 0.40107,-2.6573 4.61973,-2.81643 6.21611,-4.61936 12.9195,-7.86102 26.59023,-14.64823 38.79648,-23.59742 5.88882,-6.35475 1.22772,-15.273 -0.96591,-22.15884 -11.55481,-31.24758 -28.83418,-60.71452 -51.96136,-84.800602 -4.68211,-4.948899 -12.461,-3.960811 -17.60939,-0.31323 -13.34124,6.999427 -25.87713,15.579592 -39.52068,21.946802 -3.21801,-1.13905 -5.73563,-4.45388 -8.78045,-6.21112 C 356.38144,90.417145 338.89995,80.965188 320.37342,74.267133 320.04857,56.930906 321.03735,39.521019 319.81539,22.226573 317.38624,13.927732 307.41908,12.682427 300.18823,11.333164 284.14006,8.1694993 267.79853,7.7640677 251.49371,7.9286713 Z m 4.58462,168.8503487 c 30.71754,-0.24278 60.81649,19.18027 72.52307,47.73147 11.14117,24.47805 8.02898,54.30707 -7.37633,76.39198 -15.21045,22.64944 -42.67256,35.85293 -69.7562,34.25738 -26.94043,-1.46492 -53.02314,-17.90615 -65.46607,-42.17523 -13.2016,-24.31906 -12.17774,-55.51762 2.69231,-78.7972 14.20699,-23.07797 40.43328,-37.54102 67.38322,-37.4084 z"
     id="path16" />
</svg>
